<svg width="143" height="30" viewBox="0 0 143 30" fill="none" xmlns="http://www.w3.org/2000/svg">
<path d="M10.4891 20H7.74688V10.7422H3.66094V20H0.918751V8.625H10.4891V20ZM12.7069 15.6953C12.7069 14.8516 12.8709 14.1016 13.1991 13.4453C13.5272 12.7839 13.9985 12.276 14.6131 11.9219C15.2277 11.5677 15.9491 11.3906 16.7772 11.3906C18.0428 11.3906 19.0402 11.7839 19.7694 12.5703C20.4985 13.3516 20.8631 14.4167 20.8631 15.7656V15.8594C20.8631 17.1771 20.4959 18.224 19.7616 19C19.0324 19.7708 18.0428 20.1562 16.7928 20.1562C15.5897 20.1562 14.6235 19.7969 13.8944 19.0781C13.1652 18.3542 12.772 17.375 12.7147 16.1406L12.7069 15.6953ZM15.3397 15.8594C15.3397 16.6406 15.4621 17.2135 15.7069 17.5781C15.9517 17.9427 16.3136 18.125 16.7928 18.125C17.7303 18.125 18.2095 17.4036 18.2303 15.9609V15.6953C18.2303 14.1797 17.7459 13.4219 16.7772 13.4219C15.897 13.4219 15.4204 14.0755 15.3475 15.3828L15.3397 15.8594ZM22.6434 17.9688C23.0653 17.5469 23.37 17.1276 23.5575 16.7109C23.7502 16.2943 23.8622 15.8099 23.8934 15.2578L23.9169 14.6797L23.9638 11.5469H30.5497V17.9688H31.8153V22.5625H29.1747V20H24.5966V22.5625H21.8934L21.8856 17.9688H22.6434ZM25.6747 17.9688H27.9247V13.5781H26.5731L26.5653 14.2734C26.5289 15.7943 26.232 17.026 25.6747 17.9688ZM41.0956 20H38.4472V13.5781H36.1191V20H33.4863V11.5469H41.0956V20ZM48.3838 11.5469H51.0244V20H48.3838V15.0781L46.0634 20H43.415V11.5469H46.0634V16.4531L48.3838 11.5469ZM56.9688 18.125C57.3385 18.125 57.625 18.026 57.8281 17.8281C58.0312 17.625 58.1302 17.3438 58.125 16.9844H60.5938C60.5938 17.9115 60.2604 18.6719 59.5938 19.2656C58.9323 19.8594 58.0781 20.1562 57.0312 20.1562C55.8021 20.1562 54.8333 19.7708 54.125 19C53.4167 18.2292 53.0625 17.1615 53.0625 15.7969V15.6875C53.0625 14.8333 53.2188 14.0807 53.5312 13.4297C53.849 12.7734 54.3047 12.2708 54.8984 11.9219C55.4922 11.5677 56.1953 11.3906 57.0078 11.3906C58.1068 11.3906 58.9792 11.6953 59.625 12.3047C60.2708 12.9141 60.5938 13.7396 60.5938 14.7812H58.125C58.125 14.3438 58.0182 14.0078 57.8047 13.7734C57.5911 13.5391 57.3047 13.4219 56.9453 13.4219C56.263 13.4219 55.8646 13.8568 55.75 14.7266C55.7135 15.0026 55.6953 15.3828 55.6953 15.8672C55.6953 16.7161 55.7969 17.3047 56 17.6328C56.2031 17.9609 56.526 18.125 56.9688 18.125ZM67.4287 20C67.335 19.8281 67.2517 19.5755 67.1787 19.2422C66.6944 19.8516 66.0173 20.1562 65.1475 20.1562C64.3506 20.1562 63.6735 19.9167 63.1162 19.4375C62.559 18.9531 62.2803 18.3464 62.2803 17.6172C62.2803 16.7005 62.6189 16.0078 63.2959 15.5391C63.973 15.0703 64.9574 14.8359 66.2491 14.8359H67.0616V14.3906C67.0616 13.6146 66.7256 13.2266 66.0537 13.2266C65.4287 13.2266 65.1162 13.5339 65.1162 14.1484H62.4834C62.4834 13.3307 62.8298 12.6667 63.5225 12.1562C64.2204 11.6458 65.1084 11.3906 66.1866 11.3906C67.2647 11.3906 68.1162 11.6536 68.7412 12.1797C69.3662 12.7057 69.6866 13.4271 69.7022 14.3438V18.0859C69.7126 18.862 69.8324 19.4557 70.0616 19.8672V20H67.4287ZM65.7803 18.2812C66.1084 18.2812 66.3793 18.2109 66.5928 18.0703C66.8116 17.9297 66.9678 17.7708 67.0616 17.5938V16.2422H66.2959C65.3793 16.2422 64.9209 16.6536 64.9209 17.4766C64.9209 17.7161 65.0017 17.9115 65.1631 18.0625C65.3246 18.2083 65.5303 18.2812 65.7803 18.2812ZM79.4044 13.5625H76.7403V20H74.0919V13.5625H71.4669V11.5469H79.4044V13.5625ZM84.1769 13.8672H85.5284C86.3097 13.8672 86.9972 13.9948 87.5909 14.25C88.1847 14.5052 88.6378 14.8672 88.9503 15.3359C89.2628 15.8047 89.4191 16.349 89.4191 16.9688C89.4191 17.8802 89.0649 18.6146 88.3566 19.1719C87.6534 19.724 86.6925 20 85.4738 20H81.5284V11.5469H84.1769V13.8672ZM84.1769 15.8906V17.9844H85.5128C85.9139 17.9844 86.2264 17.8932 86.4503 17.7109C86.6795 17.5234 86.7941 17.2708 86.7941 16.9531C86.7941 16.6406 86.6925 16.3854 86.4894 16.1875C86.2863 15.9896 85.9607 15.8906 85.5128 15.8906H84.1769ZM94.9337 18.125C95.3035 18.125 95.59 18.026 95.7931 17.8281C95.9962 17.625 96.0952 17.3438 96.09 16.9844H98.5587C98.5587 17.9115 98.2254 18.6719 97.5587 19.2656C96.8973 19.8594 96.0431 20.1562 94.9962 20.1562C93.7671 20.1562 92.7983 19.7708 92.09 19C91.3817 18.2292 91.0275 17.1615 91.0275 15.7969V15.6875C91.0275 14.8333 91.1837 14.0807 91.4962 13.4297C91.814 12.7734 92.2697 12.2708 92.8634 11.9219C93.4572 11.5677 94.1603 11.3906 94.9728 11.3906C96.0718 11.3906 96.9442 11.6953 97.59 12.3047C98.2358 12.9141 98.5587 13.7396 98.5587 14.7812H96.09C96.09 14.3438 95.9832 14.0078 95.7697 13.7734C95.5561 13.5391 95.2697 13.4219 94.9103 13.4219C94.228 13.4219 93.8296 13.8568 93.715 14.7266C93.6785 15.0026 93.6603 15.3828 93.6603 15.8672C93.6603 16.7161 93.7619 17.3047 93.965 17.6328C94.1681 17.9609 94.491 18.125 94.9337 18.125ZM107.988 11.5469V20H105.363V17.2031H104.347L102.855 20H100.23L101.964 16.7578C101.459 16.5182 101.068 16.2005 100.792 15.8047C100.521 15.4089 100.386 14.9609 100.386 14.4609C100.386 13.6016 100.73 12.9062 101.417 12.375C102.105 11.8385 103.001 11.5625 104.105 11.5469H107.988ZM103.019 14.5547C103.019 14.8099 103.123 15.0312 103.331 15.2188C103.545 15.401 103.818 15.4974 104.152 15.5078H105.363V13.5625H104.191C103.847 13.5625 103.566 13.6589 103.347 13.8516C103.128 14.0443 103.019 14.2786 103.019 14.5547Z" fill="white"/>
<path d="M143 3L119 16.5L126.67 19.3407L138.5 8.25002L129.502 20.3896L129.509 20.3923L129.5 20.3896V27.0001L133.801 21.982L139.25 24.0001L143 3Z" fill="white"/>
</svg>
